<svg width="138" height="33" viewBox="0 0 138 33" fill="none" xmlns="http://www.w3.org/2000/svg">
<path d="M56.976 24.144C55.944 24.144 55.014 23.934 54.186 23.514C53.37 23.082 52.728 22.488 52.26 21.732C51.804 20.976 51.576 20.118 51.576 19.158C51.576 18.198 51.804 17.34 52.26 16.584C52.728 15.828 53.37 15.24 54.186 14.82C55.014 14.388 55.944 14.172 56.976 14.172C57.996 14.172 58.884 14.388 59.64 14.82C60.408 15.24 60.966 15.846 61.314 16.638L59.136 17.808C58.632 16.92 57.906 16.476 56.958 16.476C56.226 16.476 55.62 16.716 55.14 17.196C54.66 17.676 54.42 18.33 54.42 19.158C54.42 19.986 54.66 20.64 55.14 21.12C55.62 21.6 56.226 21.84 56.958 21.84C57.918 21.84 58.644 21.396 59.136 20.508L61.314 21.696C60.966 22.464 60.408 23.064 59.64 23.496C58.884 23.928 57.996 24.144 56.976 24.144ZM65.6128 15.594C65.9488 15.126 66.3988 14.772 66.9628 14.532C67.5388 14.292 68.1988 14.172 68.9428 14.172V16.764C68.6308 16.74 68.4208 16.728 68.3128 16.728C67.5088 16.728 66.8788 16.956 66.4228 17.412C65.9668 17.856 65.7388 18.528 65.7388 19.428V24H62.9308V14.316H65.6128V15.594ZM80.5584 14.316L76.1844 24.594C75.7404 25.71 75.1884 26.496 74.5284 26.952C73.8804 27.408 73.0944 27.636 72.1704 27.636C71.6664 27.636 71.1684 27.558 70.6764 27.402C70.1844 27.246 69.7824 27.03 69.4704 26.754L70.4964 24.756C70.7124 24.948 70.9584 25.098 71.2344 25.206C71.5224 25.314 71.8044 25.368 72.0804 25.368C72.4644 25.368 72.7764 25.272 73.0164 25.08C73.2564 24.9 73.4724 24.594 73.6644 24.162L73.7004 24.072L69.5064 14.316H72.4044L75.1224 20.886L77.8584 14.316H80.5584ZM87.4282 14.172C88.3282 14.172 89.1442 14.382 89.8762 14.802C90.6202 15.21 91.2022 15.792 91.6222 16.548C92.0422 17.292 92.2522 18.162 92.2522 19.158C92.2522 20.154 92.0422 21.03 91.6222 21.786C91.2022 22.53 90.6202 23.112 89.8762 23.532C89.1442 23.94 88.3282 24.144 87.4282 24.144C86.1922 24.144 85.2202 23.754 84.5122 22.974V27.492H81.7042V14.316H84.3862V15.432C85.0822 14.592 86.0962 14.172 87.4282 14.172ZM86.9422 21.84C87.6622 21.84 88.2502 21.6 88.7062 21.12C89.1742 20.628 89.4082 19.974 89.4082 19.158C89.4082 18.342 89.1742 17.694 88.7062 17.214C88.2502 16.722 87.6622 16.476 86.9422 16.476C86.2222 16.476 85.6282 16.722 85.1602 17.214C84.7042 17.694 84.4762 18.342 84.4762 19.158C84.4762 19.974 84.7042 20.628 85.1602 21.12C85.6282 21.6 86.2222 21.84 86.9422 21.84ZM100.378 23.532C100.102 23.736 99.7599 23.892 99.3519 24C98.9559 24.096 98.5359 24.144 98.0919 24.144C96.9399 24.144 96.0459 23.85 95.4099 23.262C94.7859 22.674 94.4739 21.81 94.4739 20.67V16.692H92.9799V14.532H94.4739V12.174H97.2819V14.532H99.6939V16.692H97.2819V20.634C97.2819 21.042 97.3839 21.36 97.5879 21.588C97.8039 21.804 98.1039 21.912 98.4879 21.912C98.9319 21.912 99.3099 21.792 99.6219 21.552L100.378 23.532ZM111.39 14.316L107.304 24H104.406L100.338 14.316H103.236L105.918 20.904L108.69 14.316H111.39ZM112.536 14.316H115.344V24H112.536V14.316ZM113.94 12.966C113.424 12.966 113.004 12.816 112.68 12.516C112.356 12.216 112.194 11.844 112.194 11.4C112.194 10.956 112.356 10.584 112.68 10.284C113.004 9.984 113.424 9.834 113.94 9.834C114.456 9.834 114.876 9.978 115.2 10.266C115.524 10.554 115.686 10.914 115.686 11.346C115.686 11.814 115.524 12.204 115.2 12.516C114.876 12.816 114.456 12.966 113.94 12.966ZM121.208 24.144C120.404 24.144 119.618 24.048 118.85 23.856C118.082 23.652 117.47 23.4 117.014 23.1L117.95 21.084C118.382 21.36 118.904 21.588 119.516 21.768C120.128 21.936 120.728 22.02 121.316 22.02C122.504 22.02 123.098 21.726 123.098 21.138C123.098 20.862 122.936 20.664 122.612 20.544C122.288 20.424 121.79 20.322 121.118 20.238C120.326 20.118 119.672 19.98 119.156 19.824C118.64 19.668 118.19 19.392 117.806 18.996C117.434 18.6 117.248 18.036 117.248 17.304C117.248 16.692 117.422 16.152 117.77 15.684C118.13 15.204 118.646 14.832 119.318 14.568C120.002 14.304 120.806 14.172 121.73 14.172C122.414 14.172 123.092 14.25 123.764 14.406C124.448 14.55 125.012 14.754 125.456 15.018L124.52 17.016C123.668 16.536 122.738 16.296 121.73 16.296C121.13 16.296 120.68 16.38 120.38 16.548C120.08 16.716 119.93 16.932 119.93 17.196C119.93 17.496 120.092 17.706 120.416 17.826C120.74 17.946 121.256 18.06 121.964 18.168C122.756 18.3 123.404 18.444 123.908 18.6C124.412 18.744 124.85 19.014 125.222 19.41C125.594 19.806 125.78 20.358 125.78 21.066C125.78 21.666 125.6 22.2 125.24 22.668C124.88 23.136 124.352 23.502 123.656 23.766C122.972 24.018 122.156 24.144 121.208 24.144ZM136.999 19.194C136.999 19.23 136.981 19.482 136.945 19.95H129.619C129.751 20.55 130.063 21.024 130.555 21.372C131.047 21.72 131.659 21.894 132.391 21.894C132.895 21.894 133.339 21.822 133.723 21.678C134.119 21.522 134.485 21.282 134.821 20.958L136.315 22.578C135.403 23.622 134.071 24.144 132.319 24.144C131.227 24.144 130.261 23.934 129.421 23.514C128.581 23.082 127.933 22.488 127.477 21.732C127.021 20.976 126.793 20.118 126.793 19.158C126.793 18.21 127.015 17.358 127.459 16.602C127.915 15.834 128.533 15.24 129.313 14.82C130.105 14.388 130.987 14.172 131.959 14.172C132.907 14.172 133.765 14.376 134.533 14.784C135.301 15.192 135.901 15.78 136.333 16.548C136.777 17.304 136.999 18.186 136.999 19.194ZM131.977 16.296C131.341 16.296 130.807 16.476 130.375 16.836C129.943 17.196 129.679 17.688 129.583 18.312H134.353C134.257 17.7 133.993 17.214 133.561 16.854C133.129 16.482 132.601 16.296 131.977 16.296Z" fill="#56B3F1"/>
<rect x="21.9607" width="10" height="10" transform="rotate(45.8501 21.9607 0)" fill="#56B3F1"/>
<rect x="9.00342" y="15.3658" width="10" height="10" transform="rotate(45.8501 9.00342 15.3658)" fill="#56B3F1"/>
<rect x="39.1326" y="3" width="10" height="10" transform="rotate(45.8501 39.1326 3)" fill="#56B3F1"/>
<rect x="26.1752" y="18.3658" width="10" height="10" transform="rotate(45.8501 26.1752 18.3658)" fill="#56B3F1"/>
</svg>